<svg width="200" height="200" viewBox="0 0 200 200" fill="none" xmlns="http://www.w3.org/2000/svg">
<rect width="200" height="200" rx="20" fill="#010110"/>
<g clip-path="url(#clip0_1206_354)">
<path d="M100 138.744C129.819 138.744 154 114.563 154 84.7441C154 54.9253 129.819 30.7441 100 30.7441C70.1812 30.7441 46 54.9253 46 84.7441C46 114.563 70.1812 138.744 100 138.744Z" fill="white"/>
<path d="M100 170.14C120.38 170.14 136.904 166.662 136.904 162.396C136.904 158.13 120.39 154.653 100 154.653C79.6096 154.653 63.0964 158.13 63.0964 162.396C63.0964 166.662 79.6096 170.14 100 170.14Z" fill="white"/>
</g>
<defs>
<clipPath id="clip0_1206_354">
<rect width="108" height="139.396" fill="white" transform="translate(46 30.7441)"/>
</clipPath>
</defs>
</svg>
